PathFileType	3	(X/Y/Z)	walking_1__fused_aligned.trc
DataRate	CameraRate	NumFrames	NumMarkers	Units	OrigDataRate	OrigDataStartFrame	OrigNumFrames
100.0	100.0	18	19	mm	100.0	1	6105
Frame#	Time	pelvis			neck			head			hip_left			hip_right			knee_left			knee_right			ankle_left			ankle_right			heel_left			heel_right			toe_left			toe_right			shoulder_left			shoulder_right			elbow_left			elbow_right			wrist_left			wrist_right			
		X1	Y1	Z1	X2	Y2	Z2	X3	Y3	Z3	X4	Y4	Z4	X5	Y5	Z5	X6	Y6	Z6	X7	Y7	Z7	X8	Y8	Z8	X9	Y9	Z9	X10	Y10	Z10	X11	Y11	Z11	X12	Y12	Z12	X13	Y13	Z13	X14	Y14	Z14	X15	Y15	Z15	X16	Y16	Z16	X17	Y17	Z17	X18	Y18	Z18	X19	Y19	Z19	
1	0.00000	25.637397	940.027163	253.256219	-3.218805	1500.734390	354.758768	-5.081755	1566.782940	511.602098	104.198935	938.653814	245.817183	-52.924302	941.400517	260.695288	129.238190	497.434763	262.719383	-84.299524	529.063304	438.019122	96.107176	198.254059	-47.327621	-100.932204	102.872137	447.189016	85.025854	185.268677	-104.111027	-103.061093	48.700080	418.652430	107.700317	21.883846	38.269891	-96.807240	57.673185	645.321967	179.116001	1470.552663	319.959266	-174.245304	1433.911210	305.952071	277.311062	1189.019843	299.699177	-223.026409	1141.200652	256.626338	300.727314	948.769669	424.371387	-278.433005	873.789483	297.801213
2	0.01000	23.732000	940.126930	254.132378	-5.111234	1500.668595	355.518932	-6.671445	1566.932893	512.371872	102.275218	938.708570	247.034442	-54.811398	941.545292	261.230360	127.827695	498.882650	270.773668	-86.079747	527.637045	432.452454	96.084534	198.717969	-34.100265	-102.214396	101.569926	437.974887	85.372195	185.279566	-90.416158	-104.195531	47.523910	409.123300	106.450528	24.370906	52.655470	-98.625953	55.761040	635.799741	177.223920	1470.524802	319.823132	-176.465123	1433.759910	307.473867	274.815856	1189.064145	297.677125	-225.514878	1140.975009	259.335065	299.101278	948.682206	421.560107	-279.091141	874.900214	303.409120
3	0.02000	21.826604	940.226696	255.008538	-7.003662	1500.602800	356.279095	-8.261135	1567.082846	513.141647	100.351502	938.763325	248.251701	-56.698493	941.690067	261.765433	126.417200	500.330537	278.827952	-87.859971	526.210787	426.885787	96.061893	199.181878	-20.872908	-103.496589	100.267716	428.760757	85.718537	185.290456	-76.721288	-105.329969	46.347740	399.594171	105.200740	26.857965	67.041049	-100.444666	53.848894	626.277515	175.331840	1470.496942	319.686998	-178.684942	1433.608610	308.995663	272.320650	1189.108447	295.655073	-228.003348	1140.749366	262.043792	297.475242	948.594742	418.748826	-279.749276	876.010946	309.017027
4	0.03000	19.921207	940.326463	255.884698	-8.896090	1500.537005	357.039258	-9.850825	1567.232799	513.911421	98.427786	938.818081	249.468960	-58.585588	941.834841	262.300506	125.006705	501.778424	286.882236	-89.640194	524.784528	421.319119	96.039251	199.645788	-7.645551	-104.778782	98.965506	419.546627	86.064878	185.301345	-63.026419	-106.464407	45.171570	390.065041	103.950951	29.345025	81.426627	-102.263378	51.936748	616.755289	173.439759	1470.469082	319.550864	-180.904762	1433.457310	310.517460	269.825443	1189.152749	293.633021	-230.491817	1140.523723	264.752519	295.849206	948.507279	415.937546	-280.407412	877.121677	314.624934
5	0.04000	18.015811	940.426230	256.760857	-10.788519	1500.471210	357.799421	-11.440516	1567.382752	514.681195	96.504070	938.872837	250.686219	-60.472683	941.979616	262.835578	123.596211	503.226311	294.936520	-91.420418	523.358270	415.752451	96.016609	200.109698	5.581805	-106.060974	97.663296	410.332498	86.411220	185.312235	-49.331550	-107.598845	43.995400	380.535911	102.701162	31.832085	95.812206	-104.082091	50.024602	607.233064	171.547678	1470.441222	319.414731	-183.124581	1433.306009	312.039256	267.330237	1189.197051	291.610969	-232.980286	1140.298080	267.461245	294.223170	948.419816	413.126266	-281.065547	878.232409	320.232840
6	0.05000	16.110415	940.525996	257.637017	-12.680947	1500.405415	358.559584	-13.030206	1567.532705	515.450969	94.580353	938.927593	251.903478	-62.359778	942.124390	263.370651	122.185716	504.674198	302.990804	-93.200641	521.932011	410.185783	95.993967	200.573607	18.809162	-107.343167	96.361085	401.118368	86.757562	185.323124	-35.636680	-108.733283	42.819230	371.006781	101.451374	34.319145	110.197784	-105.900804	48.112456	597.710838	169.655598	1470.413361	319.278597	-185.344400	1433.154709	313.561052	264.835031	1189.241353	289.588917	-235.468755	1140.072437	270.169972	292.597134	948.332352	410.314985	-281.723682	879.343140	325.840747
7	0.06000	14.205018	940.625763	258.513176	-14.573376	1500.339620	359.319747	-14.619896	1567.682658	516.220743	92.656637	938.982348	253.120737	-64.246873	942.269165	263.905724	120.775221	506.122085	311.045088	-94.980865	520.505753	404.619116	95.971325	201.037517	32.036519	-108.625359	95.058875	391.904238	87.103903	185.334013	-21.941811	-109.867720	41.643060	361.477651	100.201585	36.806204	124.583363	-107.719517	46.200310	588.188612	167.763517	1470.385501	319.142463	-187.564219	1433.003409	315.082848	262.339825	1189.285655	287.566865	-237.957224	1139.846793	272.878699	290.971098	948.244889	407.503705	-282.381818	880.453872	331.448654
8	0.07000	12.299622	940.725530	259.389336	-16.465804	1500.273825	360.079910	-16.209586	1567.832611	516.990518	90.732921	939.037104	254.337996	-66.133968	942.413939	264.440797	119.364726	507.569971	319.099372	-96.761088	519.079494	399.052448	95.948683	201.501426	45.263875	-109.907552	93.756665	382.690109	87.450245	185.344903	-8.246942	-111.002158	40.466890	351.948521	98.951797	39.293264	138.968941	-109.538230	44.288165	578.666387	165.871436	1470.357641	319.006329	-189.784038	1432.852109	316.604645	259.844619	1189.329958	285.544813	-240.445693	1139.621150	275.587425	289.345062	948.157425	404.692425	-283.039953	881.564603	337.056561
9	0.08000	10.394226	940.825296	260.265496	-18.358232	1500.208030	360.840073	-17.799276	1567.982564	517.760292	88.809204	939.091860	255.555255	-68.021063	942.558714	264.975869	117.954232	509.017858	327.153656	-98.541312	517.653236	393.485780	95.926041	201.965336	58.491232	-111.189745	92.454455	373.475979	87.796586	185.355792	5.447928	-112.136596	39.290720	342.419392	97.702008	41.780324	153.354520	-111.356943	42.376019	569.144161	163.979356	1470.329780	318.870195	-192.003857	1432.700809	318.126441	257.349412	1189.374260	283.522761	-242.934163	1139.395507	278.296152	287.719026	948.069962	401.881144	-283.698089	882.675335	342.664468
10	0.09000	9.269942	940.818667	260.847934	-19.234822	1499.930790	361.226982	-18.382126	1567.855020	518.101158	87.641910	939.076597	256.383748	-69.102306	942.560716	265.312238	117.093964	510.150622	333.331747	-99.826120	516.662164	388.932760	96.554154	201.492043	70.347599	-112.305514	92.376737	364.874530	88.756932	184.268653	17.814097	-113.168708	39.506934	333.464118	97.546862	43.690379	166.844762	-112.843261	41.368046	559.841718	162.991895	1469.995105	318.454906	-193.115541	1432.405295	319.225315	255.569265	1189.171942	281.624869	-244.312251	1139.120498	280.489555	286.591208	947.747831	398.867625	-283.210384	883.682474	347.488887
11	0.10000	8.145658	940.812037	261.430372	-20.111412	1499.653549	361.613890	-18.964975	1567.727477	518.442024	86.474616	939.061335	257.212242	-70.183549	942.562719	265.648606	116.233696	511.283386	339.509838	-101.110928	515.671091	384.379739	97.182267	201.018749	82.203966	-113.421283	92.299018	356.273081	89.717278	183.181514	30.180266	-114.200820	39.723148	324.508844	97.391715	45.600433	180.335003	-114.329580	40.360074	550.539276	162.004434	1469.660430	318.039617	-194.227224	1432.109782	320.324189	253.789119	1188.969624	279.726977	-245.690338	1138.845489	282.682958	285.463390	947.425700	395.854105	-282.722680	884.689614	352.313305
12	0.11000	7.021374	940.805408	262.012810	-20.988001	1499.376309	362.000798	-19.547825	1567.599933	518.782891	85.307322	939.046072	258.040735	-71.264792	942.564721	265.984975	115.373428	512.416150	345.687929	-102.395737	514.680019	379.826718	97.810380	200.545456	94.060333	-114.537052	92.221300	347.671632	90.677624	182.094375	42.546435	-115.232933	39.939362	315.553570	97.236569	47.510488	193.825245	-115.815898	39.352102	541.236833	161.016972	1469.325755	317.624327	-195.338907	1431.814269	321.423063	252.008972	1188.767307	277.829085	-247.068426	1138.570479	284.876362	284.335572	947.103569	392.840586	-282.234976	885.696754	357.137724
13	0.12000	5.897090	940.798778	262.595249	-21.864591	1499.099068	362.387707	-20.130674	1567.472389	519.123757	84.140028	939.030810	258.869228	-72.346035	942.566724	266.321343	114.513160	513.548914	351.866019	-103.680545	513.688946	375.273698	98.438493	200.072162	105.916700	-115.652822	92.143582	339.070183	91.637971	181.007235	54.912604	-116.265045	40.155576	306.598297	97.081422	49.420543	207.315487	-117.302216	38.344130	531.934391	160.029511	1468.991080	317.209038	-196.450590	1431.518755	322.521937	250.228825	1188.564989	275.931194	-248.446514	1138.295470	287.069765	283.207754	946.781438	389.827067	-281.747272	886.703893	361.962142
14	0.13000	4.772806	940.792149	263.177687	-22.741180	1498.821828	362.774615	-20.713524	1567.344846	519.464624	82.972734	939.015547	259.697721	-73.427278	942.568726	266.657711	113.652892	514.681678	358.044110	-104.965354	512.697874	370.720677	99.066606	199.598869	117.773067	-116.768591	92.065864	330.468734	92.598317	179.920096	67.278774	-117.297157	40.371790	297.643023	96.926276	51.330598	220.805729	-118.788534	37.336157	522.631948	159.042050	1468.656405	316.793748	-197.562273	1431.223242	323.620811	248.448678	1188.362671	274.033302	-249.824602	1138.020461	289.263168	282.079936	946.459307	386.813547	-281.259568	887.711033	366.786560
15	0.14000	3.648522	940.785519	263.760125	-23.617770	1498.544587	363.161523	-21.296374	1567.217302	519.805490	81.805440	939.000285	260.526215	-74.508521	942.570728	266.994080	112.792624	515.814442	364.222201	-106.250162	511.706801	366.167656	99.694719	199.125576	129.629434	-117.884360	91.988146	321.867285	93.558663	178.832957	79.644943	-118.329269	40.588004	288.687749	96.771130	53.240653	234.295971	-120.274852	36.328185	513.329506	158.054589	1468.321730	316.378459	-198.673956	1430.927729	324.719685	246.668531	1188.160354	272.135410	-251.202690	1137.745452	291.456571	280.952118	946.137175	383.800028	-280.771864	888.718172	371.610979
16	0.15000	2.524238	940.778890	264.342564	-24.494359	1498.267347	363.548432	-21.879223	1567.089758	520.146356	80.638146	938.985022	261.354708	-75.589764	942.572731	267.330448	111.932356	516.947206	370.400292	-107.534970	510.715729	361.614636	100.322832	198.652282	141.485801	-119.000129	91.910428	313.265836	94.519009	177.745817	92.011112	-119.361381	40.804218	279.732475	96.615983	55.150707	247.786213	-121.761170	35.320213	504.027063	157.067128	1467.987055	315.963170	-199.785640	1430.632216	325.818559	244.888384	1187.958036	270.237518	-252.580778	1137.470443	293.649974	279.824300	945.815044	380.786509	-280.284160	889.725312	376.435397
17	0.16000	1.399954	940.772261	264.925002	-25.370949	1497.990106	363.935340	-22.462073	1566.962215	520.487223	79.470852	938.969760	262.183201	-76.671007	942.574733	267.666817	111.072088	518.079970	376.578383	-108.819779	509.724656	357.061615	100.950945	198.178989	153.342168	-120.115899	91.832710	304.664387	95.479355	176.658678	104.377281	-120.393493	41.020432	270.777202	96.460837	57.060762	261.276454	-123.247489	34.312241	494.724620	156.079667	1467.652380	315.547880	-200.897323	1430.336702	326.917433	243.108237	1187.755719	268.339626	-253.958866	1137.195434	295.843378	278.696482	945.492913	377.772989	-279.796456	890.732452	381.259816
18	0.17000	0.275670	940.765631	265.507440	-26.247539	1497.712866	364.322248	-23.044922	1566.834671	520.828089	78.303558	938.954497	263.011695	-77.752250	942.576736	268.003185	110.211820	519.212734	382.756474	-110.104587	508.733584	352.508594	101.579058	197.705695	165.198535	-121.231668	91.754992	296.062937	96.439701	175.571539	116.743450	-121.425605	41.236646	261.821928	96.305690	58.970817	274.766696	-124.733807	33.304268	485.422178	155.092206	1467.317705	315.132591	-202.009006	1430.041189	328.016307	241.328090	1187.553401	266.441734	-255.336954	1136.920424	298.036781	277.568663	945.170782	374.759470	-279.308752	891.739591	386.084234
